#!OML:ASF X:\für Bonn\!DataBase\2005_08_12_Daniel\c3d\Daniel.ASF
:FULLY-SPECIFIED
:DEGREES
49
root -3.78025 13.8055 -1.00501 -151.408 -88.6736 134.24
lowerback 35.4875 -1.99061 1.63121
upperback 3.01359 -2.81758 -2.47109
thorax -14.9031 -1.59803 -2.28703
lowerneck 7.702 2.52634 -1.42321
upperneck 2.63435 3.1483 -0.132939
head -0.476433 1.52262 0.110419
rclavicle -5.31749e-015 -9.93923e-015
rhumerus 64.7215 -3.41775 -124.632
rradius 6.32838
rwrist 90.6443
rhand -20.8245 7.39601
rfingers 7.12502
rthumb 5.54376 -22.5115
lclavicle -5.31749e-015 -9.93923e-015
lhumerus 62.7891 3.67438 101.501
lradius 8.04501
lwrist -77.2195
lhand -15.1647 5.64184
lfingers 7.12502
lthumb 11.0059 35.3333
rfemur -28.1883 -22.2856 1.80339
rtibia 90.6107
rfoot 342.898 22.0654
rtoes -5.00409
lfemur -568.734 164.671 -187.794
ltibia 89.1628
lfoot -30.3394 -21.5683
ltoes 1.45895
50
root -3.76912 13.6323 -1.00698 -150.671 -88.7348 133.125
lowerback 36.0493 -2.00389 1.61718
upperback 3.11314 -2.85 -2.45098
thorax -15.0061 -1.6159 -2.22941
lowerneck 7.8179 2.5122 -1.36123
upperneck 2.36877 3.13519 -0.217126
head -0.576377 1.52089 0.0715337
rclavicle 1.49585e-014 1.74931e-014
rhumerus 64.9639 -3.25636 -124.448
rradius 6.28194
rwrist 90.4566
rhand -20.8469 7.43731
rfingers 7.12502
rthumb 5.52218 -22.4707
lclavicle 1.49585e-014 1.74931e-014
lhumerus 62.8498 3.70041 101.51
lradius 8.33384
lwrist -77.23
lhand -14.9647 5.48664
lfingers 7.12502
lthumb 11.1988 35.1678
rfemur -28.9558 -22.8519 1.24311
rtibia 92.6399
rfoot 342.648 22.6943
rtoes -5.28557
lfemur -569.714 164.231 -187.291
ltibia 91.3001
lfoot -30.029 -22.4008
ltoes 1.74812
51
root -3.75939 13.4556 -1.00927 -149.99 -88.7888 132.074
lowerback 36.5841 -2.01823 1.60254
upperback 3.2007 -2.88426 -2.43519
thorax -15.1099 -1.63441 -2.17581
lowerneck 7.9944 2.51157 -1.32714
upperneck 2.0817 3.1358 -0.287911
head -0.694573 1.52564 0.0398186
rclavicle -2.52953e-014 -1.66979e-014
rhumerus 65.1302 -3.11411 -124.266
rradius 6.26679
rwrist 90.1819
rhand -20.8433 7.53591
rfingers 7.12502
rthumb 5.52568 -22.372
lclavicle -2.52953e-014 -1.66979e-014
lhumerus 62.856 3.73673 101.51
lradius 8.62941
lwrist -77.2716
lhand -14.8176 5.30782
lfingers 7.12502
lthumb 11.3407 34.9812
rfemur -29.6999 -23.4564 0.667293
rtibia 94.649
rfoot 342.321 23.3152
rtoes -5.77944
lfemur -570.697 163.781 -186.749
ltibia 93.4309
lfoot -29.5691 -23.3338
ltoes 2.15017
52
root -3.75004 13.2747 -1.01068 -148.276 -88.8681 129.977
lowerback 37.204 -2.05236 1.60154
upperback 3.20918 -2.93656 -2.41525
thorax -15.2221 -1.66151 -2.12444
lowerneck 8.2019 2.51325 -1.31745
upperneck 1.80613 3.13592 -0.346796
head -0.815665 1.52957 0.0152831
rclavicle 2.15681e-014 8.74653e-015
rhumerus 65.268 -2.98556 -124.079
rradius 6.24887
rwrist 89.8747
rhand -20.809 7.64056
rfingers 7.12502
rthumb 5.55872 -22.2665
lclavicle 2.15681e-014 8.74653e-015
lhumerus 62.8499 3.79255 101.503
lradius 8.89502
lwrist -77.3062
lhand -14.7662 5.0897
lfingers 7.12502
lthumb 11.3903 34.7603
rfemur -30.3936 -24.1435 0.0336274
rtibia 96.6618
rfoot 341.879 23.8885
rtoes -6.49845
lfemur -571.686 163.323 -186.193
ltibia 95.5565
lfoot -29.0483 -24.2666
ltoes 2.61287
53
root -3.74161 13.0883 -1.0132 -147.904 -88.9302 129.218
lowerback 37.7178 -2.06511 1.60945
upperback 3.31309 -2.96259 -2.40753
thorax -15.2946 -1.67852 -2.0955
lowerneck 8.40615 2.51037 -1.28319
upperneck 1.51637 3.13276 -0.382382
head -0.941393 1.53195 -0.00628161
rclavicle 5.06901e-015 7.55382e-015
rhumerus 65.4886 -2.86534 -123.907
rradius 6.20233
rwrist 89.572
rhand -20.7171 7.71587
rfingers 7.12502
rthumb 5.64751 -22.1889
lclavicle 5.06901e-015 7.55382e-015
lhumerus 62.9257 3.7951 101.495
lradius 9.05955
lwrist -77.3138
lhand -14.7869 4.93244
lfingers 7.12502
lthumb 11.3703 34.6042
rfemur -31.0938 -24.8713 -0.615229
rtibia 98.686
rfoot 341.35 24.4607
rtoes -7.15616
lfemur -572.665 162.785 -185.571
ltibia 97.6837
lfoot -28.483 -25.2205
ltoes 2.9845
